<?xml version="1.0" standalone="no"?>
<!DOCTYPE svg PUBLIC "-//W3C//DTD SVG 20010904//EN"
 "http://www.w3.org/TR/2001/REC-SVG-20010904/DTD/svg10.dtd">
<svg version="1.0" xmlns="http://www.w3.org/2000/svg"
 width="1164.500000pt" height="809.382905pt" viewBox="0 0 1164.500000 809.382905"
 preserveAspectRatio="xMidYMid meet">
<metadata>
Created by potrace 1.12, written by Peter Selinger 2001-2015
</metadata>
<g transform="translate(-1.500000,809.382905) scale(0.100000,-0.100000)"
fill="#000000" stroke="none">
<path d="M9837 8088 c-117 -31 -164 -184 -84 -275 124 -141 338 -34 303 151
-17 91 -122 150 -219 124z m111 -32 c67 -35 96 -97 80 -171 -29 -131 -211
-154 -273 -35 -23 44 -19 111 8 151 41 61 125 86 185 55z"/>
<path d="M7192 6919 c-117 -15 -239 -105 -294 -217 l-33 -67 -3 -872 -2 -873
-118 0 -117 1 -202 200 -203 200 0 245 c0 211 2 245 15 251 19 7 45 54 45 81
0 11 -9 31 -21 46 -16 20 -29 26 -58 26 -44 0 -68 -21 -77 -68 -6 -28 -2 -37
30 -66 l36 -35 0 -245 0 -245 213 -210 212 -210 123 -1 122 0 0 -115 0 -115
-225 0 -225 0 0 123 0 122 -250 250 c-245 245 -250 251 -244 283 13 67 -46
117 -106 92 -54 -22 -66 -77 -29 -124 19 -24 28 -27 64 -24 l42 3 246 -239
246 -239 3 -131 3 -131 238 -3 237 -2 0 -85 0 -85 -268 0 -267 0 -150 150
-150 150 -207 0 c-198 0 -207 1 -213 20 -9 28 -59 52 -90 44 -33 -8 -65 -50
-65 -84 0 -36 41 -73 81 -73 23 0 40 8 60 31 l29 32 197 0 198 0 145 -145 146
-146 275 -2 274 -2 3 -87 3 -88 -343 0 -343 0 -85 -85 -85 -85 -143 0 -143 0
-33 35 c-39 41 -71 45 -110 14 -54 -42 -24 -139 43 -139 43 0 60 9 77 41 l15
29 157 0 157 0 85 85 85 85 330 -2 330 -3 3 -102 3 -103 -241 0 c-153 0 -240
4 -240 10 0 20 -41 50 -69 50 -46 0 -81 -34 -81 -80 0 -30 6 -43 26 -59 42
-33 102 -21 123 25 l11 24 235 0 236 0 -3 -102 -3 -103 -377 -3 c-261 -1 -378
1 -378 8 0 23 -49 60 -80 60 -41 0 -80 -39 -80 -80 0 -41 39 -80 80 -80 30 0
80 37 80 60 0 7 122 10 380 10 l380 0 0 -100 0 -100 -296 0 -297 0 -89 -87
c-81 -80 -92 -87 -124 -84 -43 3 -79 -19 -88 -55 -15 -60 38 -113 98 -98 39 9
60 46 52 92 -5 36 -3 40 76 120 l83 82 292 0 293 0 0 -115 0 -114 -67 -3 c-67
-3 -67 -3 -75 -36 -14 -55 -4 -71 12 -19 14 45 16 47 52 47 28 0 38 -4 38 -16
0 -8 5 -12 10 -9 6 3 10 1 10 -4 0 -6 -4 -11 -8 -11 -4 0 -9 -12 -10 -27 -1
-19 1 -24 7 -15 6 10 10 6 15 -15 11 -50 17 -464 9 -633 l-8 -165 -33 -2 c-52
-2 -51 -13 1 -13 l47 0 0 -139 0 -138 -41 -6 c-23 -3 -46 -10 -51 -15 -5 -5
-11 -36 -13 -68 l-4 -59 12 59 c11 53 15 60 42 68 16 4 34 3 39 -2 11 -11 -1
-43 -14 -35 -5 3 -10 2 -10 -4 0 -6 -6 -9 -12 -7 -7 1 -10 1 -5 -1 4 -3 4 -10
1 -15 -4 -7 -2 -8 4 -4 7 4 12 2 12 -4 0 -6 5 -8 13 -4 8 5 8 2 -2 -9 -11 -15
-11 -17 2 -17 12 0 16 -20 18 -107 7 -195 3 -942 -5 -950 -4 -4 -11 -1 -16 7
-6 8 -10 10 -10 5 0 -6 6 -19 13 -30 8 -11 14 -39 16 -62 2 -41 0 -43 -26 -43
-40 0 -50 9 -62 60 l-11 45 6 -45 c5 -52 24 -70 71 -70 l33 0 0 -285 c0 -262
2 -291 21 -347 26 -79 73 -148 100 -148 20 0 19 2 -6 31 -29 35 -63 98 -77
144 -12 38 -19 6303 -7 6398 16 131 91 230 218 291 l66 31 1740 3 c1721 2
1741 2 1807 -18 75 -23 152 -78 199 -142 64 -89 60 38 64 -2015 2 -1027 4
-2367 4 -2976 1 -736 4 -1106 11 -1102 7 4 10 435 10 1261 l0 1254 132 0 133
0 81 -81 c77 -76 81 -83 73 -111 -15 -55 16 -98 72 -98 75 0 107 83 53 137
-21 21 -32 24 -62 20 -34 -6 -40 -3 -123 78 l-88 85 -136 0 -136 0 3 93 3 92
323 3 c203 1 322 6 322 12 0 6 -118 10 -325 10 l-326 0 3 103 3 102 185 1 184
2 40 43 c86 95 219 229 227 229 13 0 11 35 -3 65 -9 19 -9 28 0 37 7 7 12 21
12 31 0 17 -2 18 -16 6 -25 -20 -35 -56 -24 -84 9 -24 0 -36 -123 -165 l-132
-139 -177 -1 -178 0 0 170 0 170 209 0 210 0 115 113 c86 83 116 119 116 137
0 22 -9 16 -68 -47 -37 -39 -95 -97 -130 -127 l-62 -56 -193 2 -192 3 0 115 0
115 145 3 145 2 178 178 177 177 0 96 c0 93 -1 96 -26 107 -21 10 -25 18 -22
45 2 22 10 35 26 42 25 11 30 35 7 35 -27 0 -65 -47 -65 -80 0 -30 37 -80 60
-80 6 0 10 -27 10 -67 l0 -67 -182 -183 -182 -183 -138 0 -138 0 0 110 0 110
81 0 c77 0 82 -1 109 -30 51 -54 133 -33 146 37 5 27 1 37 -24 63 -41 41 -76
40 -118 -5 -32 -34 -34 -35 -113 -35 l-81 0 0 274 c0 173 4 277 10 281 6 4 10
-8 10 -29 0 -20 4 -36 8 -36 11 0 2 62 -11 79 -8 9 -12 236 -14 745 -1 402 -5
753 -8 779 -18 151 -163 302 -308 321 -61 9 -3442 13 -3505 5z m-964 -1015
c43 -30 21 -94 -32 -94 -22 0 -46 28 -46 55 0 20 32 55 50 55 3 0 16 -7 28
-16z m-356 -441 c26 -23 23 -59 -7 -79 -23 -15 -27 -15 -50 0 -44 29 -28 95
24 96 8 0 23 -7 33 -17z m-311 -693 c24 -13 25 -57 2 -82 -20 -22 -41 -23 -65
-1 -22 20 -23 51 -1 75 18 20 36 23 64 8z m5744 -250 c37 -41 -14 -107 -63
-81 -29 16 -37 47 -18 76 20 30 56 32 81 5z m-5640 -430 c35 -39 -11 -103 -57
-79 -32 17 -41 48 -23 75 19 29 55 31 80 4z m689 -83 c13 -37 -2 -61 -42 -65
-24 -2 -34 3 -48 22 -15 24 -15 28 0 52 24 36 76 31 90 -9z m-296 -209 c7 -7
12 -24 12 -38 0 -14 -5 -31 -12 -38 -7 -7 -24 -12 -38 -12 -14 0 -31 5 -38 12
-7 7 -12 24 -12 38 0 14 5 31 12 38 7 7 24 12 38 12 14 0 31 -5 38 -12z m30
-497 c4 -40 -33 -61 -74 -43 -21 10 -25 18 -22 44 7 69 89 68 96 -1z m5459
-330 c14 -28 4 -55 -27 -71 -46 -25 -90 41 -54 81 24 27 65 21 81 -10z"/>
<path d="M8472 6777 c-51 -55 -12 -147 63 -147 25 0 44 8 60 25 56 55 16 145
-63 145 -27 0 -45 -7 -60 -23z m96 -13 c24 -16 29 -53 12 -85 -13 -23 -72 -26
-90 -4 -18 22 -15 62 5 85 22 24 43 25 73 4z"/>
<path d="M8763 6718 c3 -10 76 -13 322 -13 246 0 319 3 323 13 3 9 -66 12
-323 12 -257 0 -326 -3 -322 -12z"/>
<path d="M2752 6210 c-22 -14 -42 -39 -59 -78 -14 -31 -27 -58 -28 -59 0 -2
-25 6 -53 17 -148 57 -219 -14 -162 -162 11 -28 19 -53 17 -53 -1 -1 -23 -10
-50 -20 -54 -21 -107 -74 -107 -110 0 -35 52 -89 110 -114 27 -12 50 -23 50
-24 0 -1 -9 -26 -20 -55 -22 -57 -26 -113 -10 -142 5 -10 26 -24 45 -30 30
-10 47 -8 107 10 54 16 73 19 76 10 19 -56 62 -117 95 -135 l37 -20 38 20 c28
15 44 35 67 83 25 52 33 61 50 56 109 -33 121 -35 157 -24 29 8 39 18 48 45
12 36 6 89 -17 144 -8 18 -13 34 -11 36 2 1 26 14 53 28 68 34 99 69 99 112 0
44 -41 88 -103 112 -25 9 -47 17 -49 19 -2 1 5 21 15 45 9 24 17 68 18 97 0
45 -4 57 -24 73 -30 25 -86 24 -153 -1 -28 -11 -52 -19 -53 -17 -50 113 -85
157 -128 157 -12 0 -37 -9 -55 -20z m91 -24 c27 -25 67 -96 67 -118 -1 -11
-98 -78 -114 -78 -16 0 -106 66 -106 78 0 20 40 92 65 118 30 30 55 30 88 0z
m-238 -117 c43 -16 55 -25 51 -37 -3 -10 -8 -29 -11 -44 -3 -16 -7 -38 -10
-51 -4 -20 -14 -25 -70 -36 -36 -6 -70 -9 -75 -6 -16 10 -42 114 -36 140 15
58 59 68 151 34z m516 3 c17 -14 22 -28 21 -57 -2 -40 -19 -104 -32 -119 -5
-5 -37 -3 -74 5 l-65 13 -12 55 c-6 31 -13 61 -16 67 -5 14 88 53 128 53 15 1
37 -7 50 -17z m-383 -73 l42 -31 -29 -24 c-35 -29 -91 -33 -91 -6 0 42 14 92
24 92 7 0 31 -14 54 -31z m199 -24 l10 -55 -36 0 c-35 1 -101 43 -87 57 13 13
82 52 92 53 6 0 15 -25 21 -55z m-107 -45 c0 -3 -13 -5 -30 -5 -32 0 -36 5
-19 22 9 9 16 9 30 0 11 -7 19 -14 19 -17z m-140 -38 c0 -4 -9 -13 -20 -20
-16 -10 -20 -10 -20 1 0 8 3 17 7 20 9 9 33 9 33 -1z m226 -36 c43 -43 44 -44
44 -111 0 -68 0 -68 -49 -116 -47 -48 -49 -49 -112 -49 -62 0 -64 1 -111 47
l-48 47 0 72 0 71 45 42 c44 40 46 41 116 41 71 0 72 0 115 -44z m32 21 c3
-16 1 -17 -17 -5 -25 16 -27 31 -4 26 10 -2 19 -11 21 -21z m-323 -19 c-7 -35
-34 -79 -52 -85 -11 -4 -69 84 -61 92 5 6 78 23 101 24 16 1 18 -4 12 -31z
m428 17 c20 -4 37 -10 37 -13 0 -9 -55 -92 -61 -92 -16 0 -51 52 -56 85 -6 36
-5 38 18 32 13 -3 41 -9 62 -12z m-536 -73 l39 -58 -29 -44 c-15 -25 -32 -51
-36 -59 -7 -12 -19 -10 -66 13 -116 58 -116 128 0 182 28 13 51 24 52 24 1 0
19 -26 40 -58z m721 -5 c32 -35 35 -61 11 -91 -19 -25 -106 -76 -128 -76 -6 0
-25 26 -44 58 l-34 57 39 57 38 57 49 -21 c27 -11 58 -30 69 -41z m-618 -53
c0 -31 -2 -35 -15 -24 -18 15 -19 32 -3 48 17 17 18 16 18 -24z m390 -5 c0 -3
-7 -12 -15 -19 -13 -11 -15 -7 -15 26 1 36 2 38 15 20 8 -11 15 -23 15 -27z
m-412 -49 c13 -16 25 -43 28 -60 5 -25 3 -30 -12 -30 -25 1 -94 17 -101 24 -6
5 48 96 58 96 3 0 15 -13 27 -30z m462 -14 c16 -25 30 -47 30 -50 0 -7 -70
-26 -95 -26 -18 0 -20 5 -17 38 3 29 34 82 48 82 2 0 17 -20 34 -44z m-385
-66 c18 -19 17 -20 -3 -20 -15 0 -22 6 -22 20 0 11 2 20 3 20 2 0 12 -9 22
-20z m278 0 c-3 -12 -14 -20 -26 -20 -19 0 -20 1 -2 20 10 11 21 20 26 20 4 0
5 -9 2 -20z m-375 -26 c51 -8 54 -12 68 -88 l11 -58 -43 -19 c-103 -46 -172
-17 -160 67 3 23 13 58 23 79 13 28 22 35 38 31 11 -3 39 -8 63 -12z m546 -31
c21 -61 21 -127 0 -144 -22 -18 -80 -14 -135 9 l-46 20 13 62 c7 34 15 64 18
67 4 4 93 27 128 32 3 1 13 -20 22 -46z m-368 -14 l24 -23 -42 -28 c-24 -15
-48 -28 -54 -28 -7 0 -15 17 -18 38 -4 20 -10 46 -13 56 -5 17 -1 18 37 13 23
-3 53 -15 66 -28z m190 15 c-3 -9 -9 -33 -12 -55 -4 -22 -9 -41 -13 -43 -3 -2
-28 11 -54 29 l-48 32 31 27 c37 30 107 38 96 10z m-129 -11 c-16 -16 -18 -16
-34 0 -16 16 -15 17 17 17 32 0 33 -1 17 -17z m39 -78 c51 -33 55 -39 49 -63
-9 -38 -50 -98 -80 -118 -23 -15 -27 -15 -50 0 -30 20 -71 80 -80 118 -6 23
-1 30 46 62 30 20 55 36 57 36 2 0 28 -16 58 -35z"/>
<path d="M2744 5806 c-56 -47 -21 -146 51 -146 50 0 85 33 85 81 0 78 -78 116
-136 65z"/>
<path d="M11046 6004 c-5 -13 -3 -14 6 -7 7 6 20 13 28 16 10 4 8 6 -6 6 -12
1 -25 -6 -28 -15z"/>
<path d="M11188 6012 c13 -4 23 -11 23 -17 0 -5 4 -23 8 -40 9 -28 9 -28 10
-5 1 50 -10 70 -38 69 -25 -1 -25 -1 -3 -7z"/>
<path d="M7110 3117 l0 -2837 1825 0 1825 0 0 2835 c0 1883 -3 2835 -10 2835
-7 0 -10 -948 -10 -2825 l0 -2825 -1802 2 -1803 3 -3 2815 c-1 1856 -5 2817
-12 2824 -7 7 -10 -939 -10 -2827z"/>
<path d="M11397 5880 c-19 -16 -40 -30 -46 -30 -6 0 -11 -4 -11 -10 0 -15 12
-12 39 9 14 10 32 17 40 14 13 -4 13 -3 2 5 -11 8 -10 12 8 21 17 9 26 8 48
-6 l28 -17 -19 22 c-26 30 -49 28 -89 -8z"/>
<path d="M11547 5786 c-4 -10 -12 -14 -18 -10 -8 4 -9 3 -5 -5 4 -6 -2 -23
-13 -37 -19 -24 -19 -28 -5 -62 24 -58 33 -60 13 -3 -10 28 -8 36 16 71 15 21
25 45 23 51 -3 9 -7 7 -11 -5z"/>
<path d="M11150 5730 c30 -4 70 -14 88 -24 17 -9 32 -14 32 -11 0 15 -89 44
-130 43 l-45 -1 55 -7z"/>
<path d="M7384 5594 c3 -26 6 -71 6 -100 0 -41 4 -54 15 -54 10 0 15 11 15 35
0 34 1 35 40 35 47 0 80 27 80 65 0 44 -32 65 -101 65 l-62 0 7 -46z m104 7
c8 -4 12 -19 10 -32 -2 -20 -10 -25 -40 -27 -37 -3 -38 -3 -38 32 0 33 3 36
28 36 15 0 33 -4 40 -9z"/>
<path d="M7595 5615 c-20 -20 -25 -34 -25 -78 0 -67 20 -95 72 -104 32 -5 41
-1 68 25 32 33 39 76 20 128 -23 58 -92 73 -135 29z m95 -24 c15 -30 12 -92
-7 -113 -20 -22 -37 -23 -57 -2 -19 19 -22 104 -4 122 18 18 56 14 68 -7z"/>
<path d="M7780 5535 c0 -96 2 -106 17 -103 14 3 17 11 15 41 -3 34 -1 37 22
37 19 0 27 -8 37 -35 7 -19 15 -35 19 -36 3 0 13 -2 23 -4 21 -4 21 -3 -2 44
-18 35 -19 39 -4 54 19 19 22 72 5 89 -7 7 -39 14 -72 16 l-60 4 0 -107z m101
59 c19 -23 -1 -49 -37 -49 -30 0 -42 20 -30 51 7 19 50 18 67 -2z"/>
<path d="M7940 5625 c0 -10 11 -15 35 -15 l35 0 0 -85 c0 -69 3 -85 15 -85 12
0 15 16 15 85 l0 85 35 0 c24 0 35 5 35 15 0 12 -16 15 -85 15 -69 0 -85 -3
-85 -15z"/>
<path d="M8171 5618 c-74 -189 -74 -188 -44 -188 7 0 18 11 23 25 8 20 16 25
45 25 28 0 38 -5 47 -25 11 -25 55 -37 45 -12 -2 6 -20 54 -38 104 -25 69 -38
93 -52 93 -10 0 -21 -10 -26 -22z m49 -95 c0 -7 -11 -13 -25 -13 -29 0 -29 2
-13 48 l13 34 12 -28 c7 -16 12 -35 13 -41z"/>
<path d="M8320 5540 c0 -92 2 -100 19 -100 18 0 19 8 20 100 1 94 0 100 -19
100 -19 0 -20 -7 -20 -100z"/>
<path d="M8400 5540 l0 -100 43 0 c23 0 52 -3 65 -6 16 -5 22 -2 22 10 0 12
-10 16 -45 16 l-45 0 0 90 c0 83 -1 90 -20 90 -19 0 -20 -7 -20 -100z"/>
<path d="M8650 5620 c-35 -35 -23 -64 42 -95 51 -24 61 -51 23 -61 -17 -4 -32
-1 -44 10 -22 20 -41 21 -41 2 0 -21 25 -37 68 -43 32 -4 44 -1 61 16 39 39
22 74 -52 105 -27 11 -38 21 -35 33 4 24 56 30 64 9 7 -17 44 -22 44 -6 0 23
-41 50 -75 50 -22 0 -43 -8 -55 -20z"/>
<path d="M8835 5615 c-20 -20 -25 -34 -25 -78 0 -66 20 -95 70 -103 27 -4 42
-1 63 16 15 12 27 28 27 36 0 21 -33 17 -48 -6 -14 -23 -44 -26 -62 -5 -16 19
-16 100 0 120 18 22 61 19 67 -5 6 -23 43 -27 43 -5 0 8 -9 24 -20 35 -29 29
-84 27 -115 -5z"/>
<path d="M9010 5536 c0 -89 2 -104 16 -102 12 2 15 21 17 104 2 91 0 102 -15
102 -16 0 -18 -12 -18 -104z"/>
<path d="M9090 5538 l0 -103 67 2 c80 2 101 23 24 23 l-51 0 0 35 c0 34 1 35
40 35 22 0 40 5 40 10 0 6 -18 10 -40 10 -38 0 -40 2 -40 30 0 29 2 30 45 30
33 0 45 4 45 15 0 12 -14 15 -65 15 l-65 0 0 -102z"/>
<path d="M9258 5540 c-3 -87 -1 -100 15 -104 15 -4 17 4 17 60 0 35 3 64 8 64
4 0 20 -22 35 -50 35 -62 53 -81 72 -74 12 5 15 27 15 105 0 92 -1 99 -20 99
-17 0 -19 -8 -22 -67 l-3 -68 -40 67 c-59 99 -73 93 -77 -32z"/>
<path d="M9440 5625 c0 -10 11 -15 35 -15 l35 0 0 -90 c0 -72 3 -90 15 -90 11
0 15 19 17 88 l3 87 33 3 c20 2 32 9 32 18 0 11 -18 14 -85 14 -69 0 -85 -3
-85 -15z"/>
<path d="M9640 5541 c0 -76 3 -100 14 -104 23 -9 26 2 26 105 0 91 -1 98 -20
98 -19 0 -20 -7 -20 -99z"/>
<path d="M9722 5538 c3 -89 5 -103 21 -106 14 -3 17 4 17 42 l0 46 40 0 c29 0
40 4 40 15 0 11 -11 15 -40 15 -38 0 -40 2 -40 30 0 29 2 30 45 30 33 0 45 4
45 15 0 12 -14 15 -65 15 l-66 0 3 -102z"/>
<path d="M9890 5535 c0 -87 3 -105 15 -105 12 0 15 18 15 105 0 87 -3 105 -15
105 -12 0 -15 -18 -15 -105z"/>
<path d="M9991 5616 c-61 -64 -21 -186 60 -186 12 0 31 -8 41 -17 15 -13 21
-14 31 -4 9 10 8 14 -6 22 -16 9 -16 12 -2 32 23 33 20 118 -6 151 -28 35 -86
36 -118 2z m93 -28 c32 -45 9 -128 -34 -128 -25 0 -50 37 -50 75 0 38 25 75
50 75 10 0 26 -10 34 -22z"/>
<path d="M10170 5560 c0 -73 3 -83 25 -105 29 -30 74 -32 106 -6 21 17 24 29
28 105 3 81 2 86 -18 86 -18 0 -20 -7 -23 -81 -2 -65 -7 -84 -20 -93 -13 -8
-23 -8 -35 0 -14 9 -19 28 -21 93 -3 73 -5 81 -22 81 -18 0 -20 -7 -20 -80z"/>
<path d="M10370 5541 l0 -99 65 -4 c46 -2 65 1 65 9 0 7 -19 13 -47 15 -46 3
-48 4 -48 33 0 29 1 30 43 27 32 -3 42 0 42 12 0 10 -12 16 -42 18 -39 3 -43
6 -46 31 -3 26 -2 27 47 27 39 0 51 4 51 15 0 12 -14 15 -65 15 l-65 0 0 -99z"/>
<path d="M11340 5624 c0 -5 7 -19 15 -31 8 -12 19 -45 24 -75 l9 -53 1 51 c1
39 -5 58 -24 84 -14 19 -25 30 -25 24z"/>
<path d="M11346 5343 c-14 -30 -15 -34 -2 -24 8 7 18 23 22 34 7 22 8 22 15
-3 l8 -25 -2 24 c-3 38 -21 35 -41 -6z"/>
<path d="M11510 5300 c-7 -16 -15 -28 -19 -26 -3 2 -6 -7 -6 -20 0 -13 5 -24
11 -24 7 0 14 -7 18 -15 3 -8 1 -15 -5 -15 -5 0 -2 -11 8 -25 22 -29 45 -41
36 -18 -5 11 -3 14 6 8 16 -9 0 24 -32 67 -17 22 -18 31 -8 59 14 42 8 49 -9
9z"/>
<path d="M7503 5250 c0 -36 2 -50 4 -32 2 17 2 47 0 65 -2 17 -4 3 -4 -33z"/>
<path d="M7540 5250 c0 -68 17 -82 22 -17 l3 42 23 -42 c12 -24 27 -43 32 -43
6 0 10 27 10 61 0 37 -4 58 -10 54 -5 -3 -10 -23 -10 -43 l0 -37 -26 43 c-14
23 -29 42 -35 42 -5 0 -9 -27 -9 -60z"/>
<path d="M7667 5304 c-16 -16 -5 -44 23 -59 17 -9 30 -20 30 -26 0 -15 -30
-23 -43 -10 -17 17 -31 13 -17 -4 16 -20 54 -19 71 1 14 17 6 26 -47 61 -16
10 -17 13 -4 22 10 7 20 5 33 -7 18 -16 19 -16 16 3 -4 20 -47 33 -62 19z"/>
<path d="M7772 5298 c-17 -17 -15 -83 3 -98 19 -16 65 -4 65 17 0 15 -2 15
-18 0 -24 -22 -52 -5 -52 32 0 41 25 59 50 36 17 -15 20 -16 20 -3 0 27 -47
37 -68 16z"/>
<path d="M7871 5248 c1 -41 3 -54 8 -39 9 34 29 37 42 7 7 -14 16 -26 21 -26
11 0 10 7 -2 30 -7 14 -7 25 2 39 16 26 -5 51 -43 51 -29 0 -29 0 -28 -62z
m57 25 c-2 -10 -12 -18 -23 -18 -11 0 -21 8 -23 18 -3 13 3 17 23 17 20 0 26
-4 23 -17z"/>
<path d="M7970 5250 c0 -33 4 -60 10 -60 6 0 10 27 10 60 0 33 -4 60 -10 60
-6 0 -10 -27 -10 -60z"/>
<path d="M8020 5250 c0 -65 5 -74 20 -36 5 14 19 26 32 28 15 2 24 11 26 27 4
28 -12 41 -50 41 -27 0 -28 -1 -28 -60z m60 20 c0 -13 -7 -20 -20 -20 -13 0
-20 7 -20 20 0 13 7 20 20 20 13 0 20 -7 20 -20z"/>
<path d="M8114 5303 c4 -5 13 -8 19 -8 7 0 13 -21 15 -52 4 -71 22 -68 22 3 0
46 3 55 15 50 8 -3 15 -1 15 4 0 6 -21 10 -47 10 -25 0 -43 -3 -39 -7z"/>
<path d="M8220 5250 c0 -33 4 -60 10 -60 6 0 10 27 10 60 0 33 -4 60 -10 60
-6 0 -10 -27 -10 -60z"/>
<path d="M8282 5298 c-7 -7 -12 -28 -12 -48 0 -20 5 -41 12 -48 30 -30 78 0
78 48 0 48 -48 78 -78 48z m48 -13 c16 -20 16 -65 0 -75 -33 -20 -62 30 -40
69 13 25 23 26 40 6z"/>
<path d="M8387 5303 c-11 -10 -8 -113 2 -113 6 0 11 19 13 43 l3 42 24 -42
c14 -24 28 -43 33 -43 4 0 7 28 6 63 -1 59 -1 60 -7 18 l-6 -45 -28 42 c-29
45 -30 46 -40 35z"/>
<path d="M8652 5298 c-17 -17 -15 -83 3 -98 19 -16 65 -5 65 16 0 14 -2 14
-16 0 -8 -9 -17 -16 -19 -16 -2 0 -11 7 -19 16 -20 19 -20 44 -2 69 14 19 15
19 35 1 17 -16 21 -16 21 -4 0 27 -47 37 -68 16z"/>
<path d="M8751 5248 c1 -41 3 -54 8 -39 9 34 29 37 42 7 7 -14 16 -26 21 -26
11 0 10 7 -2 30 -7 14 -7 25 2 39 16 26 -5 51 -43 51 -29 0 -29 0 -28 -62z
m48 43 c17 -11 7 -41 -14 -41 -9 0 -15 9 -15 25 0 27 6 30 29 16z"/>
<path d="M8850 5250 l0 -60 40 0 c22 0 40 5 40 10 0 6 -14 10 -31 10 -23 0
-30 4 -27 17 2 9 14 20 28 24 25 7 25 7 -3 8 -22 1 -28 5 -25 19 3 11 12 16
26 15 12 -2 22 2 22 7 0 6 -16 10 -35 10 l-35 0 0 -60z"/>
<path d="M8950 5250 l0 -60 35 0 c19 0 35 5 35 10 0 6 -14 10 -31 10 -24 0
-30 4 -27 18 3 11 12 16 26 15 12 -2 22 2 22 7 0 6 -11 10 -25 10 -16 0 -25 6
-25 15 0 10 10 15 30 15 17 0 30 5 30 10 0 6 -16 10 -35 10 l-35 0 0 -60z"/>
<path d="M9040 5250 c0 -33 4 -60 10 -60 6 0 10 11 10 25 0 32 13 32 35 -1 20
-31 32 -25 14 7 -9 17 -9 24 0 27 15 5 14 35 -1 50 -7 7 -25 12 -40 12 -28 0
-28 -1 -28 -60z m58 23 c-5 -26 -38 -29 -38 -4 0 15 6 21 21 21 14 0 19 -5 17
-17z"/>
<path d="M9180 5303 c0 -18 37 -104 45 -106 11 -2 47 91 42 107 -3 6 -10 -2
-16 -19 -28 -73 -28 -73 -40 -28 -10 37 -31 68 -31 46z"/>
<path d="M9302 5298 c-7 -7 -12 -28 -12 -48 0 -41 14 -60 45 -60 31 0 45 19
45 60 0 41 -14 60 -45 60 -12 0 -26 -5 -33 -12z m61 -29 c13 -48 -25 -87 -51
-52 -14 19 -8 63 10 74 16 10 35 0 41 -22z"/>
<path d="M9395 5300 c3 -5 13 -10 21 -10 10 0 14 -13 14 -51 0 -31 4 -48 10
-44 6 3 10 26 10 51 0 32 4 44 15 44 8 0 15 5 15 10 0 6 -21 10 -46 10 -27 0
-43 -4 -39 -10z"/>
<path d="M9500 5250 c0 -33 4 -60 10 -60 6 0 10 11 10 25 0 33 13 32 36 -2 11
-17 19 -23 22 -15 2 7 -2 20 -10 29 -10 13 -10 17 0 20 15 6 16 35 0 51 -7 7
-25 12 -40 12 -28 0 -28 -1 -28 -60z m49 41 c17 -11 7 -41 -14 -41 -9 0 -15 9
-15 25 0 27 6 30 29 16z"/>
<path d="M9610 5250 l0 -60 35 0 c19 0 35 5 35 10 0 6 -13 10 -30 10 -20 0
-30 5 -30 15 0 9 9 15 25 15 14 0 25 5 25 10 0 6 -11 10 -25 10 -16 0 -25 6
-25 15 0 10 10 15 30 15 17 0 30 5 30 10 0 6 -16 10 -35 10 l-35 0 0 -60z"/>
<path d="M9752 5298 c-7 -7 -12 -28 -12 -48 0 -20 5 -41 12 -48 19 -19 56 -14
68 8 13 23 5 26 -16 5 -30 -30 -61 15 -43 63 10 26 22 28 43 7 21 -21 29 -19
16 5 -12 22 -49 27 -68 8z"/>
<path d="M9862 5298 c-7 -7 -12 -28 -12 -48 0 -20 5 -41 12 -48 30 -30 78 0
78 48 0 48 -48 78 -78 48z m56 -52 c-2 -21 -9 -32 -22 -34 -35 -7 -49 44 -20
73 23 22 46 1 42 -39z"/>
<path d="M9960 5250 c0 -68 17 -82 22 -17 l3 42 14 -42 c8 -24 18 -43 22 -43
4 0 14 19 22 43 l15 42 1 -42 c1 -67 21 -50 21 18 0 72 -16 76 -41 9 -17 -46
-20 -45 -38 13 -20 60 -41 48 -41 -23z"/>
<path d="M10110 5249 c0 -37 4 -58 10 -54 6 3 10 15 10 25 0 13 8 20 28 22 20
2 28 9 30 27 4 28 -12 41 -50 41 -27 0 -28 -1 -28 -61z m60 21 c0 -13 -7 -20
-20 -20 -13 0 -20 7 -20 20 0 13 7 20 20 20 13 0 20 -7 20 -20z"/>
<path d="M10205 5300 c3 -5 13 -10 21 -10 10 0 14 -13 14 -50 0 -27 5 -50 10
-50 6 0 10 23 10 50 0 38 4 50 15 50 8 0 15 5 15 10 0 6 -21 10 -46 10 -27 0
-43 -4 -39 -10z"/>
<path d="M10317 5303 c-4 -3 -7 -30 -7 -60 l0 -53 40 0 c22 0 40 5 40 10 0 6
-14 10 -31 10 -23 0 -30 4 -27 17 2 9 14 20 28 24 l25 7 -27 1 c-36 1 -39 31
-3 31 14 0 25 5 25 10 0 11 -53 14 -63 3z"/>
<path d="M8540 5240 c0 -5 6 -10 14 -10 8 0 18 5 21 10 3 6 -3 10 -14 10 -12
0 -21 -4 -21 -10z"/>
<path d="M11165 5220 l-40 -7 35 -1 c19 -1 42 3 50 8 16 11 14 11 -45 0z"/>
<path d="M11334 5105 c-10 -8 -14 -15 -7 -15 6 0 15 5 18 10 4 6 22 -2 46 -21
21 -17 39 -28 39 -26 0 3 -17 19 -39 36 -34 27 -40 29 -57 16z"/>
<path d="M6042 5101 c7 -22 212 -231 225 -231 23 0 14 11 -99 129 -95 98 -137
132 -126 102z"/>
<path d="M1614 4974 c-35 -85 -26 -193 27 -296 l19 -37 -58 -11 c-92 -20 -157
-48 -197 -87 -92 -90 -98 -200 -21 -384 6 -14 -2 -18 -41 -24 -86 -13 -153
-45 -210 -99 -56 -55 -63 -75 -37 -97 15 -12 20 -10 40 17 l24 31 158 -83 c86
-46 161 -84 165 -84 5 0 5 -20 2 -44 -6 -36 -4 -44 11 -50 34 -13 64 57 64
147 0 49 -31 156 -56 191 -21 30 -19 33 39 39 75 8 159 42 201 83 95 93 102
200 22 385 -6 14 2 18 46 24 115 16 217 75 255 148 13 27 13 31 -1 45 -14 15
-18 13 -46 -13 -23 -22 -34 -26 -48 -19 -10 5 -84 45 -164 89 l-146 80 1 40
c2 30 -2 40 -16 43 -12 2 -22 -7 -33 -34z m264 -207 c45 -23 82 -45 82 -49 0
-4 -12 -14 -27 -22 -25 -13 -32 -12 -75 10 -56 28 -54 28 -62 9 -3 -10 5 -20
26 -31 38 -20 26 -29 -49 -37 l-52 -6 -26 54 c-14 30 -25 56 -25 60 0 3 13 -1
30 -10 37 -19 60 -19 60 0 0 8 -25 27 -55 42 -52 26 -55 29 -55 65 l0 37 73
-40 c39 -22 109 -59 155 -82z m-158 -237 l30 -60 -27 2 c-43 4 -40 -15 5 -40
37 -21 42 -28 42 -59 0 -19 -3 -33 -7 -31 -5 2 -37 18 -72 36 -57 30 -91 36
-91 15 0 -4 34 -26 75 -47 41 -22 75 -44 75 -48 0 -5 -5 -18 -10 -29 -10 -18
-12 -18 -63 7 -50 25 -268 144 -276 151 -2 1 1 14 7 28 l12 26 80 -41 c72 -38
100 -43 100 -21 0 5 -31 25 -70 45 -38 21 -70 41 -70 45 0 4 11 14 25 21 23
12 32 11 85 -15 45 -21 63 -26 71 -18 9 9 3 17 -22 32 -19 12 -38 23 -44 25
-20 7 5 18 57 26 29 4 54 8 55 9 2 0 16 -26 33 -59z m-30 -311 c0 -5 -11 -15
-25 -21 -22 -10 -33 -8 -70 10 -53 26 -73 11 -31 -23 l28 -22 -39 -6 c-89 -15
-99 -12 -122 44 -13 28 -20 53 -18 56 3 2 17 -3 31 -12 15 -10 33 -14 43 -10
16 6 14 10 -12 31 -16 13 -42 28 -56 35 -25 10 -46 59 -34 79 6 9 305 -148
305 -161z m-235 -181 c13 -29 23 -54 21 -56 -2 -2 -18 4 -35 12 -38 20 -51 20
-51 1 0 -8 25 -29 55 -46 50 -28 55 -34 55 -66 l0 -34 -97 52 c-159 85 -203
110 -203 118 0 4 11 13 25 19 21 10 33 9 65 -8 22 -11 44 -20 50 -20 18 0 11
28 -12 44 -22 16 -20 19 27 29 64 14 75 9 100 -45z"/>
<path d="M7590 4905 l0 -105 280 0 281 0 -3 103 -3 102 -277 3 -278 2 0 -105z"/>
<path d="M11220 4985 c-1 -11 -2 -24 -1 -29 1 -5 -5 -6 -14 -2 -9 3 -13 2 -10
-3 3 -5 -5 -12 -17 -14 -21 -4 -20 -4 3 -6 33 -1 52 20 46 51 -4 20 -5 21 -7
3z"/>
<path d="M4574 4966 c-3 -14 -4 -33 -1 -43 3 -11 5 -6 6 13 0 16 6 35 13 42 9
9 9 12 0 12 -6 0 -14 -11 -18 -24z"/>
<path d="M4921 4891 c-17 -11 -24 -41 -10 -41 5 0 9 8 9 18 0 15 2 15 11 2 9
-13 10 -13 6 2 -3 9 -1 19 6 22 7 2 8 5 2 5 -5 0 -16 -3 -24 -8z"/>
<path d="M4315 4850 c-21 -22 -36 -42 -33 -45 3 -4 11 0 17 7 71 86 77 101 16
38z"/>
<path d="M4993 4854 c34 -37 36 -43 27 -71 -6 -17 -20 -33 -30 -36 -12 -3 -18
-13 -17 -26 1 -21 17 -30 17 -10 0 6 11 24 25 41 34 41 32 58 -17 103 l-43 40
38 -41z"/>
<path d="M4808 4859 c12 -7 22 -16 22 -21 0 -4 15 -7 33 -5 24 1 33 7 33 20 0
19 -11 23 -22 6 -6 -10 -20 -9 -71 6 -11 4 -9 1 5 -6z"/>
<path d="M4309 4742 c22 -31 22 -34 7 -66 -9 -19 -16 -40 -16 -48 0 -7 9 7 20
31 26 56 25 63 -7 92 l-27 24 23 -33z"/>
<path d="M4670 4751 c8 -4 31 -11 50 -14 29 -6 32 -5 16 5 -11 6 -33 13 -50
14 -21 2 -26 1 -16 -5z"/>
<path d="M4530 4711 c-8 -6 -18 -7 -24 -4 -5 3 -6 1 -2 -5 4 -7 0 -12 -10 -12
-10 0 -14 -3 -11 -6 3 -4 1 -16 -5 -28 -9 -18 -7 -17 13 4 13 14 33 33 44 42
22 19 19 23 -5 9z"/>
<path d="M4846 4640 c21 -43 24 -47 24 -28 0 9 -9 26 -20 39 l-21 24 17 -35z"/>
<path d="M7584 4433 l1 -188 1212 -3 1212 -2 11 -21 c14 -25 84 -58 123 -59
36 0 103 34 117 60 6 11 17 20 25 20 13 0 15 30 15 190 l0 190 -1358 0 -1359
0 1 -187z m2695 62 c-1 -58 -6 -105 -9 -105 -11 0 -37 33 -44 57 -10 32 -71
81 -111 89 -48 9 -78 -1 -120 -37 -59 -52 -71 -144 -25 -202 11 -14 20 -27 20
-29 0 -1 -535 -2 -1190 0 l-1190 2 0 165 0 165 1336 0 1335 0 -2 -105z"/>
<path d="M7772 4528 c-18 -18 -14 -63 8 -83 43 -39 107 15 82 70 -9 19 -19 25
-45 25 -18 0 -38 -5 -45 -12z"/>
<path d="M8130 4420 c0 -40 4 -70 10 -70 6 0 10 20 10 45 0 25 3 45 8 45 4 0
19 -21 34 -45 15 -25 32 -45 38 -45 6 0 10 28 10 70 0 78 -17 96 -22 23 l-3
-48 -30 47 c-43 68 -55 63 -55 -22z"/>
<path d="M8282 4478 c-26 -34 -20 -100 11 -120 56 -36 113 51 71 110 -17 24
-65 30 -82 10z m70 -33 c16 -36 -4 -78 -35 -73 -17 2 -23 11 -25 36 -2 19 -1
40 2 48 9 23 45 16 58 -11z"/>
<path d="M8406 4430 c-7 -61 -3 -80 16 -80 7 0 9 17 5 51 -7 59 1 57 23 -4 9
-23 20 -41 25 -40 5 1 17 21 26 45 l18 43 0 -47 c1 -27 6 -48 11 -48 6 0 10
30 10 70 0 84 -20 96 -40 25 -7 -25 -16 -48 -20 -50 -5 -3 -16 18 -26 45 -10
28 -23 50 -30 50 -7 0 -14 -25 -18 -60z"/>
<path d="M8636 4474 c-25 -24 -21 -90 6 -108 31 -22 54 -20 72 6 18 26 10 41
-8 15 -26 -34 -66 -13 -66 34 0 32 24 61 45 53 8 -4 15 -10 15 -15 0 -5 7 -9
15 -9 13 0 14 4 5 20 -13 24 -62 27 -84 4z"/>
<path d="M8766 4474 c-22 -22 -21 -87 2 -107 56 -51 121 36 76 101 -18 26 -56
29 -78 6z m62 -16 c28 -28 8 -88 -29 -88 -9 0 -20 7 -23 16 -8 21 -8 69 1 77
10 11 38 8 51 -5z"/>
<path d="M8890 4420 c0 -45 4 -70 11 -70 8 0 10 15 7 45 -7 56 3 58 22 5 8
-22 19 -40 24 -41 6 0 17 17 25 39 24 60 34 63 29 9 -3 -26 -2 -50 3 -53 5 -3
9 27 9 66 0 81 -14 90 -37 25 -21 -60 -29 -61 -49 -6 -26 75 -44 67 -44 -19z"/>
<path d="M9060 4420 c0 -40 4 -70 10 -70 6 0 10 14 10 30 0 26 3 30 29 30 39
0 57 23 43 55 -10 21 -19 25 -52 25 l-40 0 0 -70z m75 40 c9 -15 -14 -40 -36
-40 -14 0 -19 7 -19 25 0 20 5 25 24 25 14 0 28 -5 31 -10z"/>
<path d="M9180 4420 l0 -70 39 0 c22 0 43 5 46 10 4 6 -8 10 -29 10 l-36 0 0
60 c0 33 -4 60 -10 60 -6 0 -10 -30 -10 -70z"/>
<path d="M9290 4420 l0 -70 45 0 c25 0 45 5 45 10 0 6 -16 10 -35 10 -30 0
-35 3 -35 24 0 20 6 25 33 29 l32 4 -32 1 c-26 2 -33 6 -33 22 0 15 7 20 29
20 17 0 33 5 36 10 4 6 -12 10 -39 10 l-46 0 0 -70z"/>
<path d="M9390 4480 c0 -5 9 -10 20 -10 18 0 20 -7 20 -54 0 -30 5 -58 10 -61
6 -4 10 17 10 54 0 54 2 61 19 61 11 0 23 5 26 10 4 6 -15 10 -49 10 -31 0
-56 -4 -56 -10z"/>
<path d="M7753 4400 c-28 -11 -57 -55 -49 -75 4 -12 25 -15 105 -15 59 0 102
4 106 11 4 5 4 21 1 35 -11 43 -103 68 -163 44z"/>
<path d="M4213 4600 c-13 -5 -23 -14 -23 -20 0 -7 6 -7 18 0 9 5 33 14 52 19
35 9 35 9 5 9 -16 1 -40 -3 -52 -8z"/>
<path d="M5118 4528 c3 -51 0 -73 -10 -80 -10 -8 -10 -9 2 -5 11 3 16 21 18
72 2 37 -1 72 -5 76 -4 4 -6 -24 -5 -63z"/>
<path d="M4882 4520 c0 -19 2 -27 5 -17 2 9 2 25 0 35 -3 9 -5 1 -5 -18z"/>
<path d="M4870 4463 c0 -55 -110 -163 -166 -163 -13 0 -25 -4 -29 -9 -3 -6 10
-9 30 -8 19 1 35 6 35 11 0 5 3 7 6 3 7 -7 124 108 124 123 0 6 4 9 8 6 5 -3
6 8 4 25 -5 31 -12 39 -12 12z"/>
<path d="M4190 4462 c0 -13 47 -28 57 -18 4 3 -3 6 -13 6 -11 0 -25 5 -32 12
-9 9 -12 9 -12 0z"/>
<path d="M4460 4402 c0 -12 55 -72 67 -72 3 0 -6 15 -23 33 -16 17 -32 36 -36
42 -5 5 -8 4 -8 -3z"/>
<path d="M4995 4376 c-20 -24 -15 -76 7 -76 6 0 6 6 -2 15 -10 12 -10 21 -1
42 13 28 11 37 -4 19z"/>
<path d="M4326 4345 c4 -9 0 -23 -8 -33 -8 -9 -18 -24 -23 -32 -4 -8 4 -1 19
15 27 32 32 50 16 60 -6 3 -7 -1 -4 -10z"/>
<path d="M4805 4187 l-20 -20 20 8 c11 5 35 9 53 9 25 0 29 2 17 8 -29 17 -50
15 -70 -5z"/>
<path d="M2610 4051 c-21 -21 -48 -64 -61 -95 -17 -42 -27 -55 -38 -51 -40 16
-123 27 -155 21 -19 -4 -45 -15 -58 -25 -45 -37 -17 -153 63 -258 l32 -42 -35
-48 c-52 -71 -79 -130 -80 -172 -1 -79 43 -109 145 -96 112 13 107 15 127 -37
69 -180 192 -178 263 5 16 42 26 56 37 51 8 -3 41 -11 72 -17 175 -33 213 89
85 267 l-35 48 48 72 c73 110 87 171 50 219 -32 41 -111 45 -221 12 -11 -4
-20 9 -33 44 -20 57 -57 110 -89 128 -42 24 -77 16 -117 -26z m116 -26 c25
-25 64 -105 64 -131 0 -7 -24 -25 -54 -39 l-53 -25 -57 25 c-62 27 -62 26 -31
100 18 44 64 95 86 95 11 0 31 -11 45 -25z m-242 -156 c36 -10 38 -12 32 -42
-4 -18 -9 -52 -13 -77 -5 -44 -52 -110 -77 -110 -14 0 -70 83 -96 143 -43 97
8 125 154 86z m552 0 c8 -6 14 -21 14 -34 0 -27 -51 -129 -84 -170 l-25 -30
-36 36 c-31 31 -38 45 -47 108 -6 39 -8 75 -4 78 3 3 27 12 53 19 52 15 107
12 129 -7z m-427 -48 l34 -18 -47 -31 c-26 -18 -49 -32 -52 -32 -2 0 -2 11 1
25 3 14 7 36 10 50 6 29 9 30 54 6z m206 -40 l7 -45 -23 16 c-13 8 -34 21 -46
29 -13 8 -23 17 -23 21 0 11 64 37 71 29 4 -3 10 -26 14 -50z m-31 -68 l46
-33 0 -73 c0 -81 -8 -94 -97 -152 -50 -32 -61 -30 -143 31 l-60 44 0 68 c0 39
5 75 13 84 6 9 41 35 76 57 72 46 59 48 165 -26z m-294 -110 c0 -36 0 -36 -20
-18 -19 17 -19 19 -4 37 23 24 24 24 24 -19z m420 -2 c0 -3 -9 -12 -20 -19
-19 -11 -20 -10 -20 24 0 36 0 37 20 19 11 -10 20 -21 20 -24z m-448 -68 c36
-38 36 -37 51 -167 2 -16 -9 -22 -57 -34 -41 -10 -70 -12 -95 -6 -32 8 -36 13
-39 46 -2 20 2 47 9 60 20 40 84 138 89 138 3 0 22 -17 42 -37z m499 15 c56
-67 96 -169 78 -201 -5 -8 -23 -18 -39 -22 -32 -7 -136 11 -145 25 -3 5 0 42
6 82 9 60 17 79 42 106 17 17 33 32 35 32 2 0 12 -10 23 -22z m-357 -122 l39
-26 -38 -16 c-21 -8 -41 -12 -45 -7 -4 4 -10 28 -14 52 -5 35 -4 42 6 34 7 -6
30 -22 52 -37z m211 -8 c-4 -24 -9 -45 -11 -47 -2 -3 -21 3 -40 13 -40 18 -40
18 8 52 46 32 51 30 43 -18z m-25 -105 c0 -18 -48 -113 -68 -135 -24 -28 -66
-22 -95 12 -28 33 -65 132 -51 137 5 2 32 14 59 27 l50 23 53 -26 c28 -14 52
-31 52 -38z"/>
<path d="M2660 3683 c-61 -22 -79 -95 -35 -138 49 -50 138 -14 138 54 0 50
-60 99 -103 84z"/>
<path d="M7590 3778 c0 -68 -3 -153 -7 -190 l-6 -68 1212 0 1212 0 32 -34 c65
-68 153 -67 226 4 l41 40 0 185 0 185 -1355 0 -1355 0 0 -122z m2688 -11 c3
-122 -5 -133 -45 -56 -29 55 -62 85 -109 98 -49 13 -85 5 -128 -31 -63 -52
-72 -145 -20 -208 l26 -30 -1196 0 -1196 0 0 170 0 170 1333 -2 1332 -3 3
-108z"/>
<path d="M7690 3796 c0 -3 27 -26 60 -51 l61 -47 55 43 c30 23 57 46 60 50 3
5 -49 9 -115 9 -67 0 -121 -2 -121 -4z"/>
<path d="M7682 3694 l3 -79 130 0 130 0 3 78 c2 42 -1 77 -5 77 -4 0 -34 -21
-67 -46 -66 -52 -65 -52 -149 12 l-48 37 3 -79z"/>
<path d="M8163 3753 c-3 -10 -14 -39 -24 -65 -16 -41 -17 -48 -4 -48 8 0 15 7
15 15 0 24 57 20 65 -5 3 -11 11 -20 16 -20 11 0 7 18 -21 90 -19 49 -37 61
-47 33z m31 -35 c6 -26 -9 -47 -24 -32 -10 10 -2 54 10 54 4 0 10 -10 14 -22z"/>
<path d="M8262 3703 l3 -68 35 3 c48 5 60 18 60 63 0 47 -21 69 -66 69 l-35 0
3 -67z m76 9 c4 -38 -12 -62 -39 -62 -16 0 -19 8 -19 51 0 49 1 50 28 47 23
-2 28 -8 30 -36z"/>
<path d="M8390 3705 c0 -37 4 -65 10 -65 6 0 10 11 10 25 0 35 26 32 45 -5 9
-16 20 -30 25 -30 14 0 12 12 -6 38 -14 20 -14 24 0 38 33 33 11 64 -46 64
l-38 0 0 -65z m70 25 c0 -15 -7 -20 -25 -20 -18 0 -25 5 -25 20 0 15 7 20 25
20 18 0 25 -5 25 -20z"/>
<path d="M8512 3703 l3 -68 43 -3 c49 -4 58 15 10 20 -25 2 -33 8 -33 23 0 16
6 20 28 18 35 -2 35 15 0 19 -17 2 -29 10 -31 21 -3 14 4 17 32 17 20 0 36 5
36 10 0 6 -20 10 -45 10 l-46 0 3 -67z"/>
<path d="M8630 3755 c-18 -22 -5 -44 35 -61 19 -8 35 -19 35 -24 0 -18 -32
-24 -52 -11 -27 16 -38 3 -14 -15 26 -18 51 -18 70 2 26 25 18 42 -31 68 -18
9 -33 20 -33 25 0 17 33 21 50 6 23 -21 33 -19 20 5 -13 24 -62 27 -80 5z"/>
<path d="M8752 3758 c-22 -22 -13 -46 23 -59 19 -7 37 -19 39 -26 8 -19 -23
-28 -46 -14 -11 7 -23 9 -26 6 -9 -9 28 -35 49 -35 18 0 49 25 49 39 0 12 -33
38 -57 45 -13 4 -23 14 -23 22 0 23 29 28 50 9 23 -21 39 -13 20 10 -15 18
-61 20 -78 3z"/>
<path d="M8860 3700 l0 -70 45 0 c25 0 45 5 45 10 0 6 -16 10 -35 10 -30 0
-35 3 -35 24 0 20 6 25 33 29 l32 4 -32 1 c-26 2 -33 6 -33 22 0 16 7 20 35
20 19 0 35 5 35 10 0 6 -20 10 -45 10 l-45 0 0 -70z"/>
<path d="M9020 3700 l0 -70 45 0 c25 0 45 5 45 10 0 6 -16 10 -36 10 -31 0
-35 3 -32 23 2 16 11 23 33 26 l30 4 -30 6 c-17 4 -31 13 -33 24 -3 14 4 17
32 17 20 0 36 5 36 10 0 6 -20 10 -45 10 l-45 0 0 -70z"/>
<path d="M9130 3706 c0 -36 5 -68 10 -71 6 -4 10 14 10 46 0 58 10 57 30 -3 6
-21 15 -40 19 -43 5 -2 18 19 29 48 l21 52 0 -52 c1 -29 6 -53 11 -53 6 0 10
30 10 70 0 87 -18 94 -48 18 l-20 -53 -11 28 c-6 15 -15 38 -21 52 -5 14 -16
25 -25 25 -12 0 -15 -13 -15 -64z"/>
<path d="M9321 3714 c-26 -68 -28 -100 -4 -66 20 28 59 29 73 1 7 -11 14 -18
17 -15 9 8 -41 136 -53 136 -6 0 -21 -25 -33 -56z m40 -27 c-18 -18 -31 2 -19
29 l12 26 8 -23 c5 -13 5 -26 -1 -32z"/>
<path d="M9436 3709 c-6 -62 -2 -84 15 -74 11 8 12 135 0 135 -4 0 -11 -27
-15 -61z"/>
<path d="M9490 3700 l0 -70 40 0 c22 0 40 5 40 10 0 6 -13 10 -30 10 l-30 0 0
60 c0 33 -4 60 -10 60 -6 0 -10 -30 -10 -70z"/>
<path d="M3772 3684 c-32 -22 -43 -57 -31 -94 25 -69 112 -69 149 1 10 18 25
19 285 19 177 0 275 4 275 10 0 6 -97 10 -271 10 l-270 0 -33 35 c-37 39 -68
44 -104 19z m84 -39 c19 -30 11 -62 -21 -77 -49 -22 -96 42 -60 82 25 27 61
25 81 -5z"/>
<path d="M5640 2685 l0 -665 -24 -10 c-76 -29 -49 -150 34 -150 41 0 80 39 80
80 0 30 -37 80 -60 80 -7 0 -10 209 -10 665 0 437 -3 665 -10 665 -7 0 -10
-228 -10 -665z m48 -707 c7 -7 12 -24 12 -38 0 -33 -17 -50 -50 -50 -45 0 -63
37 -40 81 12 22 59 26 78 7z"/>
<path d="M7590 3060 l0 -100 885 0 885 0 0 100 0 100 -885 0 -885 0 0 -100z"/>
<path d="M6441 3078 c5 -10 13 -18 17 -18 4 0 8 8 8 18 0 10 -8 18 -17 18 -14
0 -15 -4 -8 -18z"/>
<path d="M6472 3051 c-10 -6 -10 -11 2 -20 12 -10 13 -18 5 -35 -10 -20 -10
-20 5 -2 19 24 20 36 4 36 -10 0 -9 3 1 9 7 5 9 11 4 14 -5 3 -15 2 -21 -2z"/>
<path d="M5955 3038 c-3 -8 -4 -101 -3 -207 2 -145 6 -195 16 -199 15 -5 18
403 2 413 -6 3 -12 0 -15 -7z"/>
<path d="M6645 3000 c-10 -11 -21 -17 -25 -15 -4 3 -10 -7 -13 -21 -2 -14 -2
-22 2 -17 3 4 19 23 35 41 17 17 27 32 24 32 -3 0 -13 -9 -23 -20z"/>
<path d="M7590 2761 c0 -9 -1 -95 -2 -191 l-3 -175 1210 -3 1209 -2 27 -29
c32 -36 94 -56 143 -47 20 4 51 22 72 41 20 19 41 35 46 35 4 0 7 86 6 193
l-3 192 -1352 1 c-1228 1 -1353 -1 -1353 -15z m2690 -117 c0 -120 -9 -128 -50
-50 -31 58 -63 83 -115 91 -53 9 -118 -17 -147 -58 -32 -44 -32 -133 0 -176
l23 -31 -1191 0 -1190 0 0 165 0 165 1335 0 1335 0 0 -106z"/>
<path d="M7768 2693 c-9 -10 -19 -29 -23 -43 -4 -14 -14 -32 -22 -41 -10 -12
-13 -36 -11 -80 l3 -64 98 -3 97 -3 0 76 c0 58 -3 77 -15 81 -8 4 -15 14 -15
24 0 54 -78 91 -112 53z m70 -15 c7 -7 12 -22 12 -35 0 -20 -5 -23 -40 -23
-36 0 -40 3 -40 25 0 36 44 57 68 33z m-13 -119 c9 -13 -3 -59 -14 -59 -11 0
-24 48 -16 60 8 13 22 13 30 -1z"/>
<path d="M8322 2634 c-24 -17 -30 -70 -12 -105 15 -26 75 -26 90 0 35 67 -22
145 -78 105z m59 -28 c22 -48 -13 -103 -47 -75 -8 6 -14 26 -14 43 0 55 41 76
61 32z"/>
<path d="M9136 2634 c-26 -25 -19 -42 25 -65 38 -19 40 -22 26 -36 -14 -15
-18 -14 -42 1 -26 17 -27 17 -23 -1 2 -13 14 -19 39 -21 67 -6 76 47 12 73
-20 8 -33 20 -31 27 7 20 38 21 52 2 9 -11 15 -13 20 -6 7 11 -30 42 -51 42
-6 0 -19 -7 -27 -16z"/>
<path d="M9256 2637 c-26 -19 -16 -50 21 -67 18 -8 33 -21 33 -28 0 -22 -30
-25 -52 -6 -20 19 -20 19 -17 -1 4 -16 12 -20 44 -20 35 0 40 3 43 25 2 21 -4
29 -29 40 -18 8 -35 21 -37 27 -6 22 27 27 48 8 18 -16 20 -16 20 -2 0 15 -28
37 -47 37 -5 0 -17 -6 -27 -13z"/>
<path d="M8130 2575 c0 -78 18 -88 22 -12 l3 52 18 -53 c11 -29 24 -51 30 -49
6 2 18 23 26 48 l16 44 3 -47 c5 -72 22 -58 22 18 0 56 -2 65 -17 62 -9 -2
-23 -24 -33 -53 -15 -41 -19 -47 -25 -30 -27 70 -36 85 -49 85 -13 0 -16 -13
-16 -65z"/>
<path d="M8438 2633 c20 -4 22 -10 22 -64 0 -46 3 -59 15 -59 12 0 15 13 15
59 0 54 2 60 23 64 12 2 -5 4 -38 4 -33 0 -50 -2 -37 -4z"/>
<path d="M8600 2575 l0 -65 34 0 c37 0 51 12 61 53 11 42 -17 77 -60 77 l-35
0 0 -65z m64 33 c21 -30 20 -44 -4 -68 -32 -32 -40 -24 -40 35 0 61 16 73 44
33z"/>
<path d="M8720 2575 l0 -65 48 2 c36 1 39 2 15 5 -27 4 -33 9 -33 29 0 19 5
24 25 24 14 0 25 5 25 10 0 6 -11 10 -25 10 -14 0 -25 5 -25 10 0 6 0 13 0 18
-1 4 14 10 32 13 30 6 28 7 -14 8 l-48 1 0 -65z"/>
<path d="M8880 2576 c0 -52 3 -66 15 -66 9 0 15 9 15 25 0 19 5 25 23 25 35 0
49 15 45 46 -3 27 -6 29 -50 32 l-48 3 0 -65z m64 48 c9 -3 16 -15 16 -25 0
-24 -45 -26 -54 -3 -11 28 6 40 38 28z"/>
<path d="M9025 2628 c-2 -7 -13 -37 -24 -65 -15 -43 -16 -53 -5 -53 8 0 14 7
14 15 0 22 56 20 69 -2 21 -38 20 -3 -2 55 -21 58 -42 78 -52 50z m25 -27 c0
-5 3 -16 6 -25 4 -11 0 -16 -14 -16 -15 0 -18 5 -14 25 4 23 22 36 22 16z"/>
<path d="M9360 2575 l0 -65 47 0 c25 0 43 3 39 7 -4 4 -19 7 -34 8 -20 0 -28
6 -30 23 -3 19 1 22 27 22 17 0 31 5 31 10 0 6 -13 10 -30 10 -23 0 -30 5 -30
19 0 15 8 21 38 24 34 3 33 4 -10 5 l-48 2 0 -65z"/>
<path d="M1757 2693 l-27 -4 2 -222 3 -222 1780 0 1780 0 0 225 0 225 -1755 1
c-965 0 -1767 -1 -1783 -3z m3516 -50 c0 -13 -1 -102 -2 -198 l-1 -175 -1755
0 -1755 0 0 200 0 200 1757 -2 1757 -3 -1 -22z"/>
<path d="M1991 2592 c-89 -48 -93 -184 -9 -246 35 -25 110 -26 156 -2 43 22
77 93 69 143 -17 101 -126 153 -216 105z"/>
<path d="M2414 2600 c-11 -4 -33 -22 -47 -40 -82 -97 -19 -233 108 -233 80 0
134 48 142 126 11 106 -102 188 -203 147z"/>
<path d="M2823 2594 c-47 -23 -73 -71 -73 -132 0 -43 5 -57 31 -87 95 -108
279 -22 252 119 -18 95 -121 144 -210 100z"/>
<path d="M3235 2592 c-50 -32 -68 -59 -73 -110 -10 -112 92 -188 196 -147 103
41 122 166 38 244 -36 33 -119 40 -161 13z"/>
<path d="M3650 2591 c-129 -69 -78 -266 69 -264 66 1 114 31 136 85 51 129
-81 246 -205 179z"/>
<path d="M4074 2601 c-32 -14 -73 -68 -80 -107 -9 -49 20 -121 58 -144 50 -30
93 -33 143 -11 62 27 87 70 82 139 -3 45 -9 59 -40 89 -30 31 -43 37 -89 40
-29 1 -62 -1 -74 -6z"/>
<path d="M6626 2687 c2 -7 14 -19 27 -26 21 -13 21 -12 -2 13 -27 29 -33 32
-25 13z"/>
<path d="M6465 2623 l-17 -28 23 22 c12 12 20 25 17 28 -3 3 -13 -7 -23 -22z"/>
<path d="M6475 2520 c21 -22 41 -40 44 -40 3 0 -13 18 -34 40 -21 22 -41 40
-44 40 -3 0 13 -18 34 -40z"/>
<path d="M8018 1963 l-3 -58 -42 -3 -43 -3 0 -190 0 -189 913 2 912 3 3 42 3
42 57 3 57 3 3 203 2 202 -929 0 -930 0 -3 -57z m1830 -145 l-3 -183 -40 0
-40 0 -3 132 -3 133 -857 2 -857 3 -3 33 c-7 67 -81 62 908 62 l900 0 -2 -182z
m-1314 0 c15 -24 -1 -36 -18 -13 -8 12 -19 16 -30 12 -23 -9 -15 -31 11 -35
33 -5 59 -40 47 -60 -13 -21 -70 -28 -90 -11 -18 15 -18 29 1 29 8 0 15 -5 15
-11 0 -14 42 -7 47 8 2 6 -12 16 -31 23 -20 6 -36 13 -36 15 0 2 -3 10 -6 18
-15 39 67 62 90 25z m46 3 c0 -27 -17 -35 -23 -11 -5 19 0 30 15 30 4 0 8 -9
8 -19z m50 -51 c0 -56 -3 -70 -15 -70 -12 0 -15 14 -15 70 0 56 3 70 15 70 12
0 15 -14 15 -70z m80 23 l30 -47 0 47 c0 35 4 47 15 47 12 0 15 -14 15 -70 0
-86 -16 -92 -60 -23 l-30 47 0 -47 c0 -35 -4 -47 -15 -47 -12 0 -15 14 -15 70
0 86 16 92 60 23z m170 32 c19 -22 2 -40 -20 -20 -17 16 -40 14 -40 -4 0 -4
16 -15 36 -24 29 -14 35 -22 32 -45 -2 -23 -8 -28 -36 -30 -36 -4 -62 11 -62
36 0 13 2 13 18 -1 21 -19 48 -22 57 -7 3 5 -12 18 -35 30 -41 21 -51 45 -28
68 17 17 63 15 78 -3z m134 -7 c15 -24 0 -34 -22 -15 -10 10 -24 17 -31 17
-29 0 -33 -86 -4 -97 7 -3 22 2 32 11 22 20 31 20 31 1 0 -8 -11 -22 -24 -31
-22 -13 -29 -14 -53 -2 -23 11 -29 20 -31 57 -4 54 18 83 61 79 17 -2 35 -11
41 -20z m114 10 c15 -15 16 -54 2 -63 -6 -4 -4 -17 5 -36 14 -26 14 -29 0 -29
-8 0 -21 11 -27 25 -6 14 -17 25 -25 25 -7 0 -13 -11 -13 -25 0 -16 -6 -25
-15 -25 -12 0 -15 14 -15 70 l0 70 38 0 c21 0 43 -5 50 -12z m62 -58 c0 -56
-3 -70 -15 -70 -12 0 -15 14 -15 70 0 56 3 70 15 70 12 0 15 -14 15 -70z m111
60 c21 -12 25 -50 8 -67 -9 -9 -8 -18 5 -37 16 -25 16 -26 -2 -26 -10 0 -24
11 -30 25 -6 14 -16 25 -22 25 -5 0 -10 -11 -10 -25 0 -16 -6 -25 -15 -25 -12
0 -15 14 -15 70 l0 70 31 0 c17 0 39 -5 50 -10z m139 0 c0 -5 -16 -10 -35 -10
-28 0 -35 -4 -35 -20 0 -16 7 -20 30 -20 17 0 30 -4 30 -10 0 -5 -13 -10 -30
-10 -23 0 -30 -4 -30 -20 0 -16 7 -20 35 -20 19 0 35 -4 35 -10 0 -5 -22 -10
-50 -10 l-50 0 0 70 0 70 50 0 c28 0 50 -4 50 -10z"/>
<path d="M9070 1795 c0 -26 14 -31 39 -16 12 8 12 12 2 25 -20 24 -41 19 -41
-9z"/>
<path d="M9250 1795 c0 -20 4 -26 18 -23 9 2 17 12 17 23 0 11 -8 21 -17 23
-14 3 -18 -3 -18 -23z"/>
<path d="M6406 1898 c-31 -34 -56 -66 -56 -72 0 -5 13 8 30 31 16 22 46 53 66
68 31 24 37 25 52 13 9 -8 26 -18 37 -21 14 -5 11 0 -10 18 -16 14 -37 25 -47
25 -9 0 -41 -28 -72 -62z"/>
<path d="M6635 1895 c-16 -8 -23 -14 -14 -15 8 0 24 7 35 15 23 18 18 18 -21
0z"/>
<path d="M6387 1616 c-17 -51 -12 -76 11 -50 8 9 9 14 2 14 -8 0 -7 6 0 21 6
11 10 30 8 42 -3 16 -8 9 -21 -27z"/>
<path d="M6562 1525 c-15 -32 -15 -134 -2 -155 7 -11 9 0 4 35 -3 28 -1 70 5
95 12 52 9 61 -7 25z"/>
<path d="M6226 1524 c-9 -24 -7 -167 3 -183 6 -10 11 22 13 92 3 101 -2 128
-16 91z"/>
<path d="M800 984 c0 -374 -6 -461 -24 -357 -4 21 -30 85 -58 143 -43 90 -62
116 -132 185 -88 87 -166 135 -261 158 -85 22 -185 30 -252 22 l-58 -7 36 -32
c19 -17 161 -141 315 -275 153 -134 314 -278 357 -320 l77 -76 0 -212 c0 -135
4 -213 10 -213 10 0 11 15 13 467 1 134 5 243 8 243 4 0 12 -7 20 -16 7 -8 76
-70 153 -136 78 -66 169 -147 204 -180 l62 -60 0 -159 c0 -99 4 -159 10 -159
6 0 10 17 11 38 1 44 5 364 7 618 l2 182 31 6 c70 14 120 108 99 185 -13 48
-66 98 -116 107 -110 21 -208 -87 -176 -195 14 -44 58 -89 98 -100 l29 -7 3
-205 2 -204 -39 81 c-70 141 -175 213 -326 224 l-80 5 -1 190 c-1 364 -4 465
-14 465 -7 0 -10 -142 -10 -406z"/>
<path d="M6380 1293 c0 -10 5 -25 10 -33 7 -11 9 -6 7 17 -2 34 -17 47 -17 16z"/>
<path d="M6630 1230 c12 -16 24 -30 26 -30 3 0 -4 14 -16 30 -12 17 -24 30
-26 30 -3 0 4 -13 16 -30z"/>
<path d="M6387 1123 c-20 -32 -37 -65 -36 -73 0 -10 3 -8 9 5 5 11 9 16 9 10
1 -5 12 2 26 17 27 30 34 48 10 28 -22 -19 -18 3 6 28 11 13 19 27 17 33 -2 5
-20 -16 -41 -48z"/>
<path d="M6710 1165 c0 -10 83 -45 105 -44 11 0 2 6 -20 13 -22 7 -50 18 -62
25 -13 6 -23 9 -23 6z"/>
<path d="M6580 982 c0 -4 -10 -13 -21 -21 -17 -10 -23 -10 -29 -1 -5 9 -9 9
-14 1 -4 -6 -16 -11 -27 -11 -10 0 -19 -5 -19 -12 0 -6 -12 -1 -27 13 -27 23
-27 23 1 -9 17 -17 35 -32 41 -32 6 0 35 16 65 35 38 25 62 34 78 30 12 -3 22
-1 22 5 0 5 -16 10 -35 10 -19 0 -35 -3 -35 -8z"/>
<path d="M10990 383 c-1 -186 -23 -270 -92 -349 -31 -35 -31 -36 -7 -32 30 4
83 80 104 151 17 59 21 312 5 322 -6 4 -10 -29 -10 -92z"/>
</g>
</svg>
